<svg width="134" height="44" viewBox="0 0 134 44" fill="none" xmlns="http://www.w3.org/2000/svg">
<path d="M0.984375 33L5 10.25H10.0938L6.76562 29.0469H16.1094L15.4219 33H0.984375ZM17.6719 28.4531C17.974 26.776 18.8542 25.4948 20.3125 24.6094C21.7812 23.7135 23.5417 23.2604 25.5938 23.25H28.9844L29.1406 22.3281C29.2656 21.6302 29.1875 21.0781 28.9062 20.6719C28.6354 20.2552 28.0729 20.0469 27.2188 20.0469C26.3646 20.0469 25.7135 20.2188 25.2656 20.5625C24.8177 20.9062 24.5469 21.3542 24.4531 21.9062L24.4062 22.1875L19.7031 22.1719L19.75 21.875C20 20.4271 20.8802 19.25 22.3906 18.3438C23.9115 17.4271 25.7917 16.9688 28.0312 16.9688C30.2812 16.9688 31.9323 17.4115 32.9844 18.2969C34.0365 19.1719 34.3958 20.5521 34.0625 22.4375L32.8281 29.4688C32.7135 30.1042 32.6615 30.7083 32.6719 31.2812C32.6823 31.8542 32.7552 32.349 32.8906 32.7656L32.8594 33H28C27.8958 32.75 27.8281 32.4427 27.7969 32.0781C27.776 31.7031 27.7812 31.3281 27.8125 30.9531C27.375 31.5469 26.6667 32.0833 25.6875 32.5625C24.7188 33.0312 23.5677 33.2656 22.2344 33.2656C20.651 33.2656 19.4219 32.8646 18.5469 32.0625C17.6823 31.25 17.3906 30.0469 17.6719 28.4531ZM22.6562 28.0469C22.5417 28.724 22.6406 29.2552 22.9531 29.6406C23.276 30.026 23.8385 30.2188 24.6406 30.2188C25.4948 30.2188 26.276 29.9323 26.9844 29.3594C27.7031 28.7865 28.1302 28.1198 28.2656 27.3594L28.5312 25.9844H26.2344C25.151 25.9844 24.3125 26.1562 23.7188 26.5C23.1354 26.8333 22.7812 27.349 22.6562 28.0469ZM35.6875 33L38.4375 17.4062H43.2188L42.9531 19.3125H43.0156C43.526 18.6354 44.2292 18.0885 45.125 17.6719C46.0312 17.2552 47.026 17.0469 48.1094 17.0469C49.7135 17.0469 50.9375 17.5 51.7812 18.4062C52.625 19.3021 52.8594 20.8438 52.4844 23.0312L50.7188 33H45.7812L47.4844 23.3438C47.651 22.4062 47.5677 21.7448 47.2344 21.3594C46.901 20.974 46.3698 20.7812 45.6406 20.7812C45.026 20.7812 44.4323 20.9583 43.8594 21.3125C43.2865 21.6667 42.8125 22.1562 42.4375 22.7812L40.625 33H35.6875ZM54.0938 33L56.8438 17.4062H61.8281L59.0781 33H54.0938ZM57.3438 12.625C57.4688 11.8958 57.8177 11.2865 58.3906 10.7969C58.974 10.2969 59.724 10.0469 60.6406 10.0469C61.5469 10.0469 62.1979 10.2969 62.5938 10.7969C63 11.2865 63.1406 11.8958 63.0156 12.625C62.8802 13.3542 62.5208 13.974 61.9375 14.4844C61.3646 14.9844 60.6198 15.2344 59.7031 15.2344C58.7969 15.2344 58.1406 14.9844 57.7344 14.4844C57.3385 13.974 57.2083 13.3542 57.3438 12.625ZM62.6094 28.4531C62.9115 26.776 63.7917 25.4948 65.25 24.6094C66.7188 23.7135 68.4792 23.2604 70.5312 23.25H73.9219L74.0781 22.3281C74.2031 21.6302 74.125 21.0781 73.8438 20.6719C73.5729 20.2552 73.0104 20.0469 72.1562 20.0469C71.3021 20.0469 70.651 20.2188 70.2031 20.5625C69.7552 20.9062 69.4844 21.3542 69.3906 21.9062L69.3438 22.1875L64.6406 22.1719L64.6875 21.875C64.9375 20.4271 65.8177 19.25 67.3281 18.3438C68.849 17.4271 70.7292 16.9688 72.9688 16.9688C75.2188 16.9688 76.8698 17.4115 77.9219 18.2969C78.974 19.1719 79.3333 20.5521 79 22.4375L77.7656 29.4688C77.651 30.1042 77.599 30.7083 77.6094 31.2812C77.6198 31.8542 77.6927 32.349 77.8281 32.7656L77.7969 33H72.9375C72.8333 32.75 72.7656 32.4427 72.7344 32.0781C72.7135 31.7031 72.7188 31.3281 72.75 30.9531C72.3125 31.5469 71.6042 32.0833 70.625 32.5625C69.6562 33.0312 68.5052 33.2656 67.1719 33.2656C65.5885 33.2656 64.3594 32.8646 63.4844 32.0625C62.6198 31.25 62.3281 30.0469 62.6094 28.4531ZM67.5938 28.0469C67.4792 28.724 67.5781 29.2552 67.8906 29.6406C68.2135 30.026 68.776 30.2188 69.5781 30.2188C70.4323 30.2188 71.2135 29.9323 71.9219 29.3594C72.6406 28.7865 73.0677 28.1198 73.2031 27.3594L73.4688 25.9844H71.1719C70.0885 25.9844 69.25 26.1562 68.6562 26.5C68.0729 26.8333 67.7188 27.349 67.5938 28.0469ZM80.625 33L84.7656 9.54688H89.7031L87.3438 22.8594L93.2812 17.3906H98.8125L86.375 28.4531L85.5625 33H80.625ZM91.1719 33L87.25 25.6719L90.75 22.25L96.7969 33H91.1719ZM98.0781 25.4219L98.1562 24.9219C98.5833 22.5052 99.6719 20.5729 101.422 19.125C103.182 17.6667 105.271 16.9375 107.688 16.9375C110.083 16.9375 111.828 17.6302 112.922 19.0156C114.016 20.3906 114.349 22.2812 113.922 24.6875L113.688 26.2656H100.984L101.375 23.4844H109.266L109.312 23.2344C109.469 22.4323 109.359 21.7656 108.984 21.2344C108.609 20.6927 107.964 20.4219 107.047 20.4219C106.005 20.4219 105.146 20.8021 104.469 21.5625C103.792 22.3229 103.339 23.3177 103.109 24.5469L102.953 25.5781C102.714 26.9219 102.818 27.9792 103.266 28.75C103.714 29.5104 104.5 29.8906 105.625 29.8906C106.417 29.8906 107.125 29.7083 107.75 29.3438C108.385 28.9688 108.917 28.5208 109.344 28L112.828 29.7188C112.13 30.8333 111.12 31.7344 109.797 32.4219C108.474 33.099 106.896 33.4375 105.062 33.4375C102.427 33.4375 100.495 32.7135 99.2656 31.2656C98.0365 29.8073 97.6406 27.8594 98.0781 25.4219ZM114.984 28.4531C115.286 26.776 116.167 25.4948 117.625 24.6094C119.094 23.7135 120.854 23.2604 122.906 23.25H126.297L126.453 22.3281C126.578 21.6302 126.5 21.0781 126.219 20.6719C125.948 20.2552 125.385 20.0469 124.531 20.0469C123.677 20.0469 123.026 20.2188 122.578 20.5625C122.13 20.9062 121.859 21.3542 121.766 21.9062L121.719 22.1875L117.016 22.1719L117.062 21.875C117.312 20.4271 118.193 19.25 119.703 18.3438C121.224 17.4271 123.104 16.9688 125.344 16.9688C127.594 16.9688 129.245 17.4115 130.297 18.2969C131.349 19.1719 131.708 20.5521 131.375 22.4375L130.141 29.4688C130.026 30.1042 129.974 30.7083 129.984 31.2812C129.995 31.8542 130.068 32.349 130.203 32.7656L130.172 33H125.312C125.208 32.75 125.141 32.4427 125.109 32.0781C125.089 31.7031 125.094 31.3281 125.125 30.9531C124.688 31.5469 123.979 32.0833 123 32.5625C122.031 33.0312 120.88 33.2656 119.547 33.2656C117.964 33.2656 116.734 32.8646 115.859 32.0625C114.995 31.25 114.703 30.0469 114.984 28.4531ZM119.969 28.0469C119.854 28.724 119.953 29.2552 120.266 29.6406C120.589 30.026 121.151 30.2188 121.953 30.2188C122.807 30.2188 123.589 29.9323 124.297 29.3594C125.016 28.7865 125.443 28.1198 125.578 27.3594L125.844 25.9844H123.547C122.464 25.9844 121.625 26.1562 121.031 26.5C120.448 26.8333 120.094 27.349 119.969 28.0469Z" fill="white"/>
</svg>
